<svg width="32" height="32" viewBox="0 0 32 32" fill="none" xmlns="http://www.w3.org/2000/svg">
<circle cx="16" cy="16" r="16" fill="#00BF73"/>
<circle cx="16" cy="16" r="15.1877" stroke="#00F88C" stroke-opacity="0.22" stroke-width="1.62462"/>
<circle cx="16.0001" cy="16.0001" r="12.3077" fill="#00B8A9" fill-opacity="0.79"/>
<mask id="path-4-outside-1_143_415" maskUnits="userSpaceOnUse" x="8.82739" y="9.27295" width="14" height="14" fill="black">
<rect fill="white" x="8.82739" y="9.27295" width="14" height="14"/>
<path d="M17.7961 19.2407C18.0195 19.2407 18.2048 19.2217 18.3519 19.1835C18.5045 19.1454 18.6243 19.0746 18.7115 18.971C18.8042 18.8621 18.8668 18.7149 18.8995 18.5297C18.9322 18.3444 18.9485 18.1074 18.9485 17.8186H21.8091V22.2729H10.1625V19.2407C10.642 19.2407 10.9852 19.1781 11.1923 19.0528C11.3993 18.922 11.5029 18.6795 11.5029 18.3254V14.1898C11.5029 13.8302 11.3993 13.5877 11.1923 13.4624C10.9852 13.3316 10.642 13.2662 10.1625 13.2662V10.234H21.8091V14.6883H18.9485C18.9485 14.3996 18.9322 14.1625 18.8995 13.9773C18.8668 13.792 18.8042 13.6476 18.7115 13.5441C18.6243 13.4406 18.5045 13.3697 18.3519 13.3316C18.2048 13.288 18.0195 13.2662 17.7961 13.2662H16.325V15.4403H18.9322V16.8869H16.325V19.2407H17.7961Z"/>
</mask>
<g filter="url(#filter0_i_143_415)">
<path d="M17.7961 19.2407C18.0195 19.2407 18.2048 19.2217 18.3519 19.1835C18.5045 19.1454 18.6243 19.0746 18.7115 18.971C18.8042 18.8621 18.8668 18.7149 18.8995 18.5297C18.9322 18.3444 18.9485 18.1074 18.9485 17.8186H21.8091V22.2729H10.1625V19.2407C10.642 19.2407 10.9852 19.1781 11.1923 19.0528C11.3993 18.922 11.5029 18.6795 11.5029 18.3254V14.1898C11.5029 13.8302 11.3993 13.5877 11.1923 13.4624C10.9852 13.3316 10.642 13.2662 10.1625 13.2662V10.234H21.8091V14.6883H18.9485C18.9485 14.3996 18.9322 14.1625 18.8995 13.9773C18.8668 13.792 18.8042 13.6476 18.7115 13.5441C18.6243 13.4406 18.5045 13.3697 18.3519 13.3316C18.2048 13.288 18.0195 13.2662 17.7961 13.2662H16.325V15.4403H18.9322V16.8869H16.325V19.2407H17.7961Z" fill="white"/>
</g>
<path d="M18.3519 19.1835L18.2564 18.8014L18.2531 18.8023L18.3519 19.1835ZM18.7115 18.971L18.4114 18.7159L18.4103 18.7173L18.7115 18.971ZM18.9485 17.8186V17.4248H18.5547V17.8186H18.9485ZM21.8091 17.8186H22.203V17.4248H21.8091V17.8186ZM21.8091 22.2729V22.6668H22.203V22.2729H21.8091ZM10.1625 22.2729H9.76864V22.6668H10.1625V22.2729ZM10.1625 19.2407V18.8469H9.76864V19.2407H10.1625ZM11.1923 19.0528L11.3963 19.3898L11.4026 19.3857L11.1923 19.0528ZM11.1923 13.4624L10.9819 13.7954L10.9884 13.7993L11.1923 13.4624ZM10.1625 13.2662H9.76864V13.6601H10.1625V13.2662ZM10.1625 10.234V9.84016H9.76864V10.234H10.1625ZM21.8091 10.234H22.203V9.84016H21.8091V10.234ZM21.8091 14.6883V15.0822H22.203V14.6883H21.8091ZM18.9485 14.6883H18.5547V15.0822H18.9485V14.6883ZM18.8995 13.9773L18.5117 14.0457L18.8995 13.9773ZM18.7115 13.5441L18.4101 13.7979L18.418 13.8067L18.7115 13.5441ZM18.3519 13.3316L18.24 13.7092L18.2482 13.7116L18.2564 13.7137L18.3519 13.3316ZM16.325 13.2662V12.8724H15.9311V13.2662H16.325ZM16.325 15.4403H15.9311V15.8341H16.325V15.4403ZM18.9322 15.4403H19.326V15.0464H18.9322V15.4403ZM18.9322 16.8869V17.2807H19.326V16.8869H18.9322ZM16.325 16.8869V16.493H15.9311V16.8869H16.325ZM16.325 19.2407H15.9311V19.6346H16.325V19.2407ZM17.7961 19.2407V19.6346C18.0388 19.6346 18.2601 19.6142 18.4508 19.5648L18.3519 19.1835L18.2531 18.8023C18.1495 18.8291 18.0003 18.8469 17.7961 18.8469V19.2407ZM18.3519 19.1835L18.4474 19.5656C18.6669 19.5107 18.8639 19.4015 19.0128 19.2247L18.7115 18.971L18.4103 18.7173C18.3847 18.7476 18.342 18.78 18.2564 18.8014L18.3519 19.1835ZM18.7115 18.971L19.0116 19.2261C19.1617 19.0496 19.2462 18.8312 19.2874 18.5981L18.8995 18.5297L18.5117 18.4612C18.4874 18.5987 18.4466 18.6746 18.4114 18.716L18.7115 18.971ZM18.8995 18.5297L19.2874 18.5981C19.3256 18.3817 19.3424 18.1196 19.3424 17.8186H18.9485H18.5547C18.5547 18.0952 18.5388 18.3072 18.5117 18.4612L18.8995 18.5297ZM18.9485 17.8186V18.2125H21.8091V17.8186V17.4248H18.9485V17.8186ZM21.8091 17.8186H21.4153V22.2729H21.8091H22.203V17.8186H21.8091ZM21.8091 22.2729V21.8791H10.1625V22.2729V22.6668H21.8091V22.2729ZM10.1625 22.2729H10.5563V19.2407H10.1625H9.76864V22.2729H10.1625ZM10.1625 19.2407V19.6346C10.6558 19.6346 11.092 19.5738 11.3962 19.3897L11.1923 19.0528L10.9884 18.7158C10.8785 18.7823 10.6281 18.8469 10.1625 18.8469V19.2407ZM11.1923 19.0528L11.4026 19.3857C11.77 19.1537 11.8967 18.7492 11.8967 18.3254H11.5029H11.109C11.109 18.6098 11.0287 18.6903 10.982 18.7198L11.1923 19.0528ZM11.5029 18.3254H11.8967V14.1898H11.5029H11.109V18.3254H11.5029ZM11.5029 14.1898H11.8967C11.8967 13.7648 11.7721 13.353 11.3962 13.1254L11.1923 13.4624L10.9884 13.7993C11.0266 13.8224 11.109 13.8955 11.109 14.1898H11.5029ZM11.1923 13.4624L11.4026 13.1294C11.0965 12.936 10.6572 12.8724 10.1625 12.8724V13.2662V13.6601C10.6268 13.6601 10.874 13.7272 10.982 13.7954L11.1923 13.4624ZM10.1625 13.2662H10.5563V10.234H10.1625H9.76864V13.2662H10.1625ZM10.1625 10.234V10.6279H21.8091V10.234V9.84016H10.1625V10.234ZM21.8091 10.234H21.4153V14.6883H21.8091H22.203V10.234H21.8091ZM21.8091 14.6883V14.2945H18.9485V14.6883V15.0822H21.8091V14.6883ZM18.9485 14.6883H19.3424C19.3424 14.3874 19.3256 14.1253 19.2874 13.9088L18.8995 13.9773L18.5117 14.0457C18.5388 14.1998 18.5547 14.4117 18.5547 14.6883H18.9485ZM18.8995 13.9773L19.2874 13.9088C19.2463 13.6761 19.161 13.4558 19.005 13.2815L18.7115 13.5441L18.418 13.8067C18.4473 13.8394 18.4873 13.9079 18.5117 14.0457L18.8995 13.9773ZM18.7115 13.5441L19.0128 13.2904C18.8639 13.1137 18.6669 13.0044 18.4474 12.9495L18.3519 13.3316L18.2564 13.7137C18.342 13.7351 18.3847 13.7675 18.4103 13.7978L18.7115 13.5441ZM18.3519 13.3316L18.4638 12.954C18.2679 12.896 18.0418 12.8724 17.7961 12.8724V13.2662V13.6601C17.9973 13.6601 18.1417 13.6801 18.24 13.7092L18.3519 13.3316ZM17.7961 13.2662V12.8724H16.325V13.2662V13.6601H17.7961V13.2662ZM16.325 13.2662H15.9311V15.4403H16.325H16.7188V13.2662H16.325ZM16.325 15.4403V15.8341H18.9322V15.4403V15.0464H16.325V15.4403ZM18.9322 15.4403H18.5384V16.8869H18.9322H19.326V15.4403H18.9322ZM18.9322 16.8869V16.493H16.325V16.8869V17.2807H18.9322V16.8869ZM16.325 16.8869H15.9311V19.2407H16.325H16.7188V16.8869H16.325ZM16.325 19.2407V19.6346H17.7961V19.2407V18.8469H16.325V19.2407Z" fill="#077D81" mask="url(#path-4-outside-1_143_415)"/>
<defs>
<filter id="filter0_i_143_415" x="9.76855" y="9.84009" width="12.4343" height="13.0236" filterUnits="userSpaceOnUse" color-interpolation-filters="sRGB">
<feFlood flood-opacity="0" result="BackgroundImageFix"/>
<feBlend mode="normal" in="SourceGraphic" in2="BackgroundImageFix" result="shape"/>
<feColorMatrix in="SourceAlpha" type="matrix" values="0 0 0 0 0 0 0 0 0 0 0 0 0 0 0 0 0 0 127 0" result="hardAlpha"/>
<feOffset dy="0.196923"/>
<feGaussianBlur stdDeviation="0.0984615"/>
<feComposite in2="hardAlpha" operator="arithmetic" k2="-1" k3="1"/>
<feColorMatrix type="matrix" values="0 0 0 0 0 0 0 0 0 0 0 0 0 0 0 0 0 0 0.25 0"/>
<feBlend mode="normal" in2="shape" result="effect1_innerShadow_143_415"/>
</filter>
</defs>
</svg>
