<svg width="650" height="650" viewBox="0 0 650 650" fill="none" xmlns="http://www.w3.org/2000/svg">
<circle cx="325" cy="325" r="325" fill="#00BF73"/>
<circle cx="325" cy="325" r="308.5" stroke="#00F88C" stroke-opacity="0.22" stroke-width="33"/>
<circle cx="325" cy="325" r="250" fill="#00B8A9" fill-opacity="0.79"/>
<mask id="path-4-outside-1_143_415" maskUnits="userSpaceOnUse" x="197.621" y="197.109" width="254" height="261" fill="black">
<rect fill="white" x="197.621" y="197.109" width="254" height="261"/>
<path d="M361.486 388.517C366.024 388.517 369.787 388.13 372.775 387.355C375.874 386.58 378.309 385.141 380.08 383.039C381.961 380.825 383.234 377.837 383.898 374.074C384.562 370.311 384.894 365.496 384.894 359.63H443V450.109H206.427V388.517C216.167 388.517 223.14 387.244 227.345 384.699C231.551 382.042 233.654 377.117 233.654 369.923V285.919C233.654 278.615 231.551 273.69 227.345 271.144C223.14 268.488 216.167 267.16 206.427 267.16V205.568H443V296.046H384.894C384.894 290.181 384.562 285.366 383.898 281.603C383.234 277.84 381.961 274.907 380.08 272.804C378.309 270.701 375.874 269.263 372.775 268.488C369.787 267.602 366.024 267.16 361.486 267.16H331.603V311.32H384.562V340.705H331.603V388.517H361.486Z"/>
</mask>
<g filter="url(#filter0_i_143_415)">
<path d="M361.486 388.517C366.024 388.517 369.787 388.13 372.775 387.355C375.874 386.58 378.309 385.141 380.08 383.039C381.961 380.825 383.234 377.837 383.898 374.074C384.562 370.311 384.894 365.496 384.894 359.63H443V450.109H206.427V388.517C216.167 388.517 223.14 387.244 227.345 384.699C231.551 382.042 233.654 377.117 233.654 369.923V285.919C233.654 278.615 231.551 273.69 227.345 271.144C223.14 268.488 216.167 267.16 206.427 267.16V205.568H443V296.046H384.894C384.894 290.181 384.562 285.366 383.898 281.603C383.234 277.84 381.961 274.907 380.08 272.804C378.309 270.701 375.874 269.263 372.775 268.488C369.787 267.602 366.024 267.16 361.486 267.16H331.603V311.32H384.562V340.705H331.603V388.517H361.486Z" fill="white"/>
</g>
<path d="M372.775 387.355L370.835 379.594L370.801 379.602L370.767 379.611L372.775 387.355ZM380.08 383.039L373.984 377.857L373.972 377.871L373.961 377.885L380.08 383.039ZM384.894 359.63V351.63H376.894V359.63H384.894ZM443 359.63H451V351.63H443V359.63ZM443 450.109V458.109H451V450.109H443ZM206.427 450.109H198.427V458.109H206.427V450.109ZM206.427 388.517V380.517H198.427V388.517H206.427ZM227.345 384.699L231.488 391.543L231.553 391.503L231.617 391.463L227.345 384.699ZM227.345 271.144L223.074 277.908L223.138 277.949L223.203 277.988L227.345 271.144ZM206.427 267.16H198.427V275.16H206.427V267.16ZM206.427 205.568V197.568H198.427V205.568H206.427ZM443 205.568H451V197.568H443V205.568ZM443 296.046V304.046H451V296.046H443ZM384.894 296.046H376.894V304.046H384.894V296.046ZM383.898 281.603L376.02 282.993L383.898 281.603ZM380.08 272.804L373.961 277.957L374.038 278.049L374.118 278.139L380.08 272.804ZM372.775 268.488L370.502 276.158L370.668 276.207L370.835 276.249L372.775 268.488ZM331.603 267.16V259.16H323.603V267.16H331.603ZM331.603 311.32H323.603V319.32H331.603V311.32ZM384.562 311.32H392.562V303.32H384.562V311.32ZM384.562 340.705V348.705H392.562V340.705H384.562ZM331.603 340.705V332.705H323.603V340.705H331.603ZM331.603 388.517H323.603V396.517H331.603V388.517ZM361.486 388.517V396.517C366.416 396.517 370.91 396.103 374.783 395.099L372.775 387.355L370.767 379.611C368.663 380.157 365.632 380.517 361.486 380.517V388.517ZM372.775 387.355L374.715 395.116C379.174 394.002 383.176 391.782 386.199 388.192L380.08 383.039L373.961 377.885C373.442 378.501 372.575 379.159 370.835 379.594L372.775 387.355ZM380.08 383.039L386.175 388.22C389.224 384.634 390.941 380.197 391.776 375.464L383.898 374.074L376.02 372.683C375.527 375.476 374.699 377.016 373.984 377.857L380.08 383.039ZM383.898 374.074L391.776 375.464C392.552 371.068 392.894 365.744 392.894 359.63H384.894H376.894C376.894 365.249 376.572 369.554 376.02 372.683L383.898 374.074ZM384.894 359.63V367.63H443V359.63V351.63H384.894V359.63ZM443 359.63H435V450.109H443H451V359.63H443ZM443 450.109V442.109H206.427V450.109V458.109H443V450.109ZM206.427 450.109H214.427V388.517H206.427H198.427V450.109H206.427ZM206.427 388.517V396.517C216.448 396.517 225.309 395.283 231.488 391.543L227.345 384.699L223.203 377.855C220.971 379.206 215.886 380.517 206.427 380.517V388.517ZM227.345 384.699L231.617 391.463C239.08 386.749 241.654 378.533 241.654 369.923H233.654H225.654C225.654 375.702 224.022 377.336 223.074 377.935L227.345 384.699ZM233.654 369.923H241.654V285.919H233.654H225.654V369.923H233.654ZM233.654 285.919H241.654C241.654 277.287 239.124 268.922 231.488 264.3L227.345 271.144L223.203 277.988C223.979 278.458 225.654 279.942 225.654 285.919H233.654ZM227.345 271.144L231.617 264.38C225.399 260.453 216.476 259.16 206.427 259.16V267.16V275.16C215.858 275.16 220.881 276.523 223.074 277.908L227.345 271.144ZM206.427 267.16H214.427V205.568H206.427H198.427V267.16H206.427ZM206.427 205.568V213.568H443V205.568V197.568H206.427V205.568ZM443 205.568H435V296.046H443H451V205.568H443ZM443 296.046V288.046H384.894V296.046V304.046H443V296.046ZM384.894 296.046H392.894C392.894 289.933 392.552 284.609 391.776 280.213L383.898 281.603L376.02 282.993C376.572 286.123 376.894 290.428 376.894 296.046H384.894ZM383.898 281.603L391.776 280.213C390.942 275.485 389.21 271.011 386.042 267.47L380.08 272.804L374.118 278.139C374.713 278.803 375.526 280.195 376.02 282.993L383.898 281.603ZM380.08 272.804L386.199 267.651C383.176 264.061 379.174 261.841 374.715 260.727L372.775 268.488L370.835 276.249C372.575 276.684 373.442 277.342 373.961 277.957L380.08 272.804ZM372.775 268.488L375.048 260.817C371.069 259.639 366.476 259.16 361.486 259.16V267.16V275.16C365.571 275.16 368.504 275.566 370.502 276.158L372.775 268.488ZM361.486 267.16V259.16H331.603V267.16V275.16H361.486V267.16ZM331.603 267.16H323.603V311.32H331.603H339.603V267.16H331.603ZM331.603 311.32V319.32H384.562V311.32V303.32H331.603V311.32ZM384.562 311.32H376.562V340.705H384.562H392.562V311.32H384.562ZM384.562 340.705V332.705H331.603V340.705V348.705H384.562V340.705ZM331.603 340.705H323.603V388.517H331.603H339.603V340.705H331.603ZM331.603 388.517V396.517H361.486V388.517V380.517H331.603V388.517Z" fill="#077D81" mask="url(#path-4-outside-1_143_415)"/>
<defs>
<filter id="filter0_i_143_415" x="198.427" y="197.568" width="252.572" height="264.541" filterUnits="userSpaceOnUse" color-interpolation-filters="sRGB">
<feFlood flood-opacity="0" result="BackgroundImageFix"/>
<feBlend mode="normal" in="SourceGraphic" in2="BackgroundImageFix" result="shape"/>
<feColorMatrix in="SourceAlpha" type="matrix" values="0 0 0 0 0 0 0 0 0 0 0 0 0 0 0 0 0 0 127 0" result="hardAlpha"/>
<feOffset dy="4"/>
<feGaussianBlur stdDeviation="2"/>
<feComposite in2="hardAlpha" operator="arithmetic" k2="-1" k3="1"/>
<feColorMatrix type="matrix" values="0 0 0 0 0 0 0 0 0 0 0 0 0 0 0 0 0 0 0.25 0"/>
<feBlend mode="normal" in2="shape" result="effect1_innerShadow_143_415"/>
</filter>
</defs>
</svg>
